<?xml version="1.0" encoding="UTF-8"?> <svg xmlns="http://www.w3.org/2000/svg" xmlns:xlink="http://www.w3.org/1999/xlink" fill="#ffffff" data-name="Слой 1" viewBox="0 0 345.2 143.51"> <defs> <style>.cls-1{fill:#ffffff;}.cls-2{clip-path:url(#clip-path);}</style> <clipPath id="clip-path" transform="translate(-40 -132.88)"> <rect class="cls-1" width="425.2" height="425.2"></rect> </clipPath> </defs> <title>Seva Pack black logo</title> <g class="cls-2"> <path d="M126.56,276.38h-5.72v-23.9h16.29c6,0,8.4,2.34,8.4,8.37s-2.45,8.47-8.34,8.47H126.56Zm9.54-11.81c2.89,0,3.72-1.14,3.72-3.72,0-2.34-.72-3.62-3.72-3.62h-9.54v7.34Z" transform="translate(-40 -132.88)"></path> <path d="M166.18,276.38l12.67-23.9h8.48l12.57,23.9h-6.72l-3.06-6H176l-3.1,6Zm21.63-10.54L183.26,257H183l-4.72,8.89Z" transform="translate(-40 -132.88)"></path> <path d="M250.71,268.12c0,6.37-1.59,8.27-8.65,8.27H231.43c-6.61,0-8.71-2-8.71-8.44v-6.78c0-7,2.24-9,9.27-9h9.51c5.65,0,9.2,1.62,9.2,8.34H245c0-2.51-1.27-3.58-4.58-3.58H233c-3.82,0-4.62.65-4.62,4.41v5.93c0,3.65,1.34,4.34,4.62,4.34h7.34c3.41,0,4.58-.62,4.58-3.51Z" transform="translate(-40 -132.88)"></path> <polygon points="241.42 128.52 244.79 128.52 255.23 119.6 263.81 119.6 249.72 130.8 264.36 143.51 255.95 143.51 244.9 133.28 241.42 133.28 241.42 143.51 235.7 143.51 235.7 119.6 241.42 119.6 241.42 128.52"></polygon> <polygon points="192.34 23.09 218.38 63.65 244.59 23.09 261.14 23.09 218.38 87.64 175.62 23.09 192.34 23.09"></polygon> <polygon points="259.68 86.66 302.44 22.16 345.2 86.66 328.66 86.66 302.44 46.14 276.4 86.66 259.68 86.66"></polygon> <path d="M90.29,181.06H62.53c-4.21,0-7.33-.73-7.33-6.5,0-4.85,3-6.59,7.33-6.59H91.06V156H63.54c-16.95,0-23.54,5.13-23.54,18,0,16.12,6.32,19.14,23.63,19.14H86.17c8.7,0,9.71,2.57,9.71,7.15,0,5.13-2.57,7.33-9.25,7.33h-42v12H90.19c15,0,20.89-5.86,20.89-19.33,0-17.68-6.78-19.15-20.79-19.15" transform="translate(-40 -132.88)"></path> <polygon points="110.96 74.59 110.96 60.91 158.88 60.91 158.88 48.84 110.96 48.84 110.96 35.16 158.88 35.16 158.88 23.09 110.96 23.09 96.27 23.09 96.27 35.16 96.27 48.84 96.27 60.91 96.27 86.66 96.78 86.66 110.96 86.66 161.73 86.66 161.73 74.59 110.96 74.59"></polygon> <path d="M168.74,135.27c5.76,0,10.54,4.38,10.65,9.76v.47H182V145c0-6.7-6-12.15-13.28-12.15s-13.28,5.45-13.28,12.15v.48h2.62V145c.11-5.38,4.89-9.76,10.65-9.76" transform="translate(-40 -132.88)"></path> </g> </svg>
